<svg width="60" height="84" viewBox="0 0 60 84" fill="none" xmlns="http://www.w3.org/2000/svg">
<path d="M27.8286 25.1814L5.6897 1.54154C3.83016 -0.444065 0.5 0.871821 0.5 3.59221V7.35747C0.5 8.09337 0.770488 8.80361 1.26002 9.35308L24.24 35.1469C24.7295 35.6964 25 36.4066 25 37.1425V80.5C25 82.1569 26.3431 83.5 28 83.5H31C32.6569 83.5 34 82.1569 34 80.5V65.7952C34 64.9686 34.341 64.1786 34.9426 63.6118L59.0574 40.8882C59.659 40.3214 60 39.5314 60 38.7048V34.7426C60 32.0699 56.7686 30.7314 54.8787 32.6213L39.1213 48.3787C37.2314 50.2686 34 48.9301 34 46.2574V37.1937C34 36.4271 34.2934 35.6896 34.8201 35.1326L59.1799 9.36737C59.7066 8.81036 60 8.07289 60 7.30634V3.5C60 0.791868 56.6953 -0.530027 54.8276 1.43103L32.1907 25.1997C31.0016 26.4483 29.0072 26.4399 27.8286 25.1814Z" fill="#F30903"/>
<path d="M27.8286 25.1814L5.6897 1.54154C3.83016 -0.444065 0.5 0.871821 0.5 3.59221V7.35747C0.5 8.09337 0.770488 8.80361 1.26002 9.35308L24.24 35.1469C24.7295 35.6964 25 36.4066 25 37.1425V80.5C25 82.1569 26.3431 83.5 28 83.5H31C32.6569 83.5 34 82.1569 34 80.5V65.7952C34 64.9686 34.341 64.1786 34.9426 63.6118L59.0574 40.8882C59.659 40.3214 60 39.5314 60 38.7048V34.7426C60 32.0699 56.7686 30.7314 54.8787 32.6213L39.1213 48.3787C37.2314 50.2686 34 48.9301 34 46.2574V37.1937C34 36.4271 34.2934 35.6896 34.8201 35.1326L59.1799 9.36737C59.7066 8.81036 60 8.07289 60 7.30634V3.5C60 0.791868 56.6953 -0.530027 54.8276 1.43103L32.1907 25.1997C31.0016 26.4483 29.0072 26.4399 27.8286 25.1814Z" fill="url(#paint0_linear)"/>
<defs>
<linearGradient id="paint0_linear" x1="30" y1="101.5" x2="30" y2="-4" gradientUnits="userSpaceOnUse">
<stop stop-color="#212121"/>
<stop offset="1" stop-color="white" stop-opacity="0"/>
</linearGradient>
</defs>
</svg>
